<svg width="857" height="562" viewBox="0 0 857 562" fill="none" xmlns="http://www.w3.org/2000/svg">
<g opacity="0.03" clip-path="url(#clip0_2_905)">
<path d="M0 194.471C12.0881 200.575 24.4344 206.473 36.1784 212.848C45.8575 218.105 54.8268 223.932 64.8608 229.965L127.237 192.486L131.819 195.517L74.2066 234.44L135.271 277.674L129.7 281.359C103.61 271.399 89.9083 251.763 64.2586 241.576C51.4176 249.857 38.7702 258.401 25.4453 266.476C17.4977 271.25 8.50687 275.276 0 279.645V275.276C17.8096 263.651 35.9741 252.24 52.9555 240.103C54.9881 238.68 52.2672 232.092 48.8365 229.901C33.1241 219.884 16.3792 210.585 0 201.024V194.471Z" fill="white"/>
<path d="M0 126.771C6.50652 129.837 13.8411 132.363 19.3582 136.069C41.0932 150.611 62.2582 165.53 81.1218 181.964C50.9337 167.188 24.8861 149.558 0 131.139V126.771Z" fill="white"/>
<path d="M0 253.435C0.526974 253.35 1.20451 253.371 1.54866 253.151C31.1883 234.447 31.1883 234.447 0 216.313V211.944L39.9533 231.018L0 259.988V253.435Z" fill="white"/>
<path d="M6.19665e-05 139.875C7.39921 145.396 14.3897 151.202 22.3158 156.374C31.1346 162.129 40.9212 167.237 50.0088 172.822C52.4932 174.345 53.8805 176.621 55.9239 178.471C57.9672 180.321 60.2902 182.163 59.7848 185.493C56.4831 182.583 53.7192 179.31 49.783 176.849C37.8347 169.386 25.4024 162.264 13.2174 154.951C8.66825 152.205 4.37718 149.259 -0.0322018 146.414L6.19665e-05 139.875Z" fill="white"/>
<path d="M0 157.349L46.1802 184.035L41.674 187.314L0 161.717V157.349Z" fill="white"/>
<path d="M0 170.453L24.015 183.216L0 185.735V170.453Z" fill="white"/>
<path d="M133.55 177.148L11.5612 100.007C18.0892 98.7972 23.1976 96.9545 28.1985 97.0755C59.817 97.851 91.4354 98.847 122.979 100.412C126.732 100.597 133.023 104.603 133.099 106.908C133.841 130.712 133.55 154.538 133.55 177.148ZM32.1132 103.87L31.6185 106.431C36.3182 106.893 40.9964 107.64 45.707 107.776C63.2477 108.259 80.7884 108.814 98.3399 108.814C114.59 108.814 120.172 113.752 119.849 124.338C119.516 137.442 121.656 150.568 122.731 163.687H126.904C127.399 160.358 128.41 157.021 128.281 153.727C127.915 144.301 126.667 134.888 126.538 125.462C126.28 106.666 126.603 105.855 98.2646 104.154C76.3575 102.845 54.1708 103.87 32.1132 103.87ZM103.782 150.889L111.417 150.305C110.525 140.345 110.095 130.335 108.363 120.425C107.997 118.326 102.986 115.054 99.9208 114.947C83.52 114.406 67.0548 114.691 46.7071 114.691C60.6881 123.463 73.7441 119.927 85.1978 119.408C98.641 118.789 102.792 121.89 102.341 130.25C101.975 137.115 103.244 144.009 103.782 150.889ZM67.8614 127.055L96.1137 143.668C94.2424 135.657 93.1992 131.224 92.2313 127.055H67.8614Z" fill="white"/>
<path d="M446.035 392.991L552.506 467.058C540.805 467.77 534.051 468.538 527.275 468.602C504.207 468.809 481.106 469.143 458.059 468.545C453.133 468.417 444.497 464.761 444.229 462.406C441.734 440.095 440.669 417.72 439.195 395.36L446.035 392.991ZM465.523 413.565C465.523 425.966 465.2 436.716 465.856 447.43C465.953 449.116 470.384 451.997 472.976 452.083C487.279 452.538 501.637 452.296 515.994 452.296L517.069 449.301L465.523 413.565ZM458.543 407.255H452.413V462.121H533.363C533.459 461.132 533.556 460.143 533.642 459.154C514.391 458.664 495.108 457.511 475.901 457.917C462.942 458.187 457.951 455.619 458.371 446.989C459.016 433.749 458.543 420.495 458.543 407.255Z" fill="white"/>
<path d="M857 417.351C848.396 429.104 841.944 437.876 833.77 449.01C825.693 439.519 819.961 432.796 813.595 425.326L793.236 447.288L772.577 421.299L756.509 448.27H808.067C808.067 448.803 808.067 449.337 807.981 449.87H740.227V449.116L752.906 447.494L729.451 417.358L857 417.351Z" fill="white"/>
<path d="M152.715 5.35693L273.457 88.9935C251.947 88.9935 235.203 88.9508 218.479 88.9935C200.895 89.0433 183.29 89.4773 165.782 89.086C161.372 88.9864 153.371 86.3897 153.328 84.8601C152.511 58.6649 152.715 32.4414 152.715 5.35693ZM253.227 83.6151L158.092 14.7337C158.092 36.8807 157.942 57.9962 158.426 79.1045C158.426 80.627 163.201 83.3732 165.814 83.3732C193.98 83.7004 222.211 83.5866 253.249 83.5866L253.227 83.6151Z" fill="white"/>
<path d="M708.813 76.9489L610.667 6.58063C643.285 6.58063 673.667 6.39566 704.016 6.87944C706.888 6.92212 712.061 11.1481 712.007 13.4104C711.534 33.5655 710.125 53.7062 708.813 76.9489ZM670.72 35.2658L670.086 34.8603L697.908 59.2341L701.639 58.3377V10.8421L627.648 8.61534C627.196 9.72519 626.734 10.835 626.282 11.9449L670.72 35.2658Z" fill="white"/>
<path d="M849.278 104.944C831.824 116.768 814.53 128.692 796.71 140.26C794.925 141.419 788.397 141.483 786.816 140.359C767.952 126.963 749.605 113.247 733.763 101.558H848.321C848.644 102.689 848.956 103.82 849.278 104.944ZM815.111 114.541L779.621 112.364L777.588 115.708L790.698 124.63C800.689 120.51 807.905 117.515 815.186 114.513L798.635 127.838L765.296 111.788L767.361 109.334L797.473 106.879C797.473 106.317 797.387 105.762 797.334 105.2H743.034C756.111 114.449 768.587 123.569 781.804 132.235C784.428 133.942 791.784 135.237 793.817 134.149C808.873 126.124 823.091 117.444 840.589 107.199L820.424 105.776L815.111 114.541Z" fill="white"/>
<path d="M186.506 152.703C167.9 152.603 150.059 139.648 150.392 126.494C150.704 114.357 168.019 103.486 187.259 103.344C205.66 103.208 221.318 113.937 221.136 126.558C220.888 143.995 209.187 152.831 186.506 152.703ZM190.356 133.124L196.809 120.233C188.646 123.079 182.656 123.84 181.021 126.046C179.386 128.251 180.301 133.537 182.903 134.675C188.216 137.002 196.217 139.243 201.605 138.183C206.993 137.123 215.285 130.905 214.177 128.841C210.392 121.912 205.187 113.346 196.486 110.045C184.796 105.613 170.202 108.409 161.76 116.683C153.769 124.509 155.576 132.662 164.792 139.741C173.235 146.215 183.559 148.932 194.034 146.855C185.947 142.465 175.418 139.143 171.331 133.708C168.578 130.03 173.202 122.645 177.58 118.234C182.774 112.998 192.055 112.614 198.691 117.715C205.767 123.157 203.799 128.144 190.356 133.124Z" fill="white"/>
<path d="M445.702 96.2432C452.542 101.65 459.586 106.95 466.136 112.492C472.588 117.928 478.417 123.669 484.709 129.19C501.077 143.547 501.067 143.817 482.827 156.808C469.416 166.37 456.069 175.967 440.12 187.4V97.9364L445.702 96.2432ZM479.095 135.266L448.014 103.905L441.163 107.591C453.553 116.967 465.938 126.349 478.321 135.735C475.826 141.17 474.987 147.346 470.416 151.856C464.77 157.441 455.671 161.446 448.756 166.547C445.928 168.632 444.928 171.798 443.089 174.48L446.874 175.718C458.629 167.302 470.244 158.8 482.181 150.497C490.936 144.422 491.334 139.349 479.095 135.266ZM443.97 161.838L451.09 165.694C457.951 159.675 465.275 153.855 471.416 147.531C473.567 145.29 474.997 140.829 473.126 139.1C465.394 131.943 456.263 125.441 447.649 118.703L443.97 119.664V161.838Z" fill="white"/>
<path d="M489.419 240.01L478.224 249.501L457.5 238.865L440.292 247.879V225.525C459.758 231.807 459.758 231.807 483.612 222.025C493.614 230.434 503.906 230.37 515.09 222.118C517.177 220.588 524.931 221.079 528.867 222.317C534.083 223.953 538.116 227.24 542.848 229.936L562.97 221.008V252.411C556.087 244.869 551.14 239.462 546.225 234.056L540.955 236.738C537.879 238.161 534.191 239.192 531.825 241.006C523.49 247.359 515.919 249.743 507.949 240.715C502.163 234.169 495.345 237.762 488.86 240.409C492.979 234.34 494.237 228.947 480.837 226.543L462.393 236.311L475.815 244.734L489.419 240.01ZM536.739 233.757C522.941 220.382 519.618 220.382 505.046 233.671L519.715 244.215L536.739 233.757Z" fill="white"/>
<path d="M659.783 482.945C662.697 484.055 665.988 484.795 668.203 486.253C681.044 494.656 693.864 503.079 706.199 511.794C713.448 516.909 713.728 521.555 703.349 525.916C686.68 532.938 671 540.984 654.255 547.921C650.394 549.522 642.425 549.82 638.886 548.22C622.679 540.792 607.107 532.71 592.072 524.266C589.846 523.013 589.781 517.023 591.932 515.878C612.054 505.206 632.864 495.068 653.534 484.845C655.212 484.012 657.417 483.65 659.783 482.945ZM705.307 518.517L659.471 486.737L594.696 518.752C610.301 527.147 623.938 535.023 638.564 541.987C642.263 543.752 650.587 544.122 654.276 542.571C670.838 535.492 686.486 527.517 705.307 518.517Z" fill="white"/>
<path d="M181.516 329.716L151.5 347.431L146.348 346.897C146.348 328.336 146.112 309.76 146.778 291.206C146.832 289.655 152.898 286.937 156.253 286.937C178.483 286.553 200.734 286.738 227.341 286.738L180.914 330.136L181.516 329.716ZM189.635 308.159L210.844 295.958L209.004 291.988C192.873 291.988 176.655 291.782 160.512 292.187C157.856 292.259 153.188 294.983 153.124 296.549C152.543 310.407 152.79 324.295 152.79 338.153L159.48 339.05L175.138 322.111L189.635 308.159Z" fill="white"/>
<path d="M100.286 303.634C96.1567 307.583 90.8116 310.834 91.7473 312.171C93.9842 315.394 98.5549 318.674 103.405 320.047C106.051 320.794 112.783 318.389 114.88 316.227C120.967 309.973 114.321 298.896 103.362 296.15C90.6396 292.956 83.5093 297.779 78.9601 304.687C72.9268 313.872 79.2397 326.357 91.9731 331.658C110.439 339.334 123.968 334.432 131.184 317.429L135.615 318.482C132.819 323.64 132.217 330.697 126.689 333.5C119.397 337.2 107.331 340.117 98.8883 338.886C70.2489 334.717 60.0643 308.735 81.5304 295.488C86.9077 292.144 100.168 289.206 104.341 291.17C112.697 295.097 120.161 302.105 122.441 308.678C124.022 313.253 118.408 320.915 112.321 324.195C102.997 329.217 93.5756 324.863 87.424 319.001C81.0788 312.968 82.1327 306.494 91.7258 303.072C96.232 301.457 104.534 303.243 110.127 304.915C111.891 305.441 110.976 310.706 110.127 313.658C109.901 314.484 105.61 314.804 103.179 315.359C102.502 312.677 101.846 309.973 100.286 303.634Z" fill="white"/>
<path d="M516.22 328.414C515.456 324.409 515.746 322.103 514.531 320.225C509.659 312.712 514.252 309.824 525.34 308.23C529.437 307.647 535.083 303.962 535.503 301.351C537.46 289.199 538.826 288.011 564.465 287.122C557.098 290.124 552.979 291.441 549.548 293.312C546.902 294.734 542.73 297.402 543.332 298.647C549.484 311.403 535.89 313.154 521.468 315.01C522.393 318.959 524.597 322.594 523.619 325.782C522.737 328.585 518.145 333.117 515.413 333.045C500.421 332.668 496.055 337.314 497.528 346.299C497.786 347.886 496.044 349.622 495.012 351.728L471.287 349.978C467.082 358.444 469.695 371.527 446.164 366.042C443.702 370.182 441.572 373.747 439.088 377.916C433.409 364.256 435.56 362.122 454.316 360.656C456.876 360.457 461.199 358.444 461.188 357.284C461.006 344.094 471.943 341.718 490.054 345.723C489.462 333.664 494.141 325.497 516.22 328.414Z" fill="white"/>
<path d="M147.434 396.74L214.231 444.115C238.967 426.756 259.196 412.541 279.447 398.334L283.587 400.39C281.286 403.236 279.856 406.594 276.554 408.721C258.142 420.602 239.483 432.319 220.318 443.674C217.823 445.154 210.058 445.474 208.026 444.136C187.85 430.889 168.352 417.201 148.79 403.584C147.908 402.944 148.316 401.535 147.434 396.74Z" fill="white"/>
<path d="M735.183 288.431H850.859L852.741 291.234L791.322 327.055L732.602 290.864L735.183 288.431ZM794.559 308.885L780.083 291.59H740.657L791.537 322.637L842.083 293.326C833.835 292.935 829.124 292.614 824.414 292.515C819.036 292.408 813.552 292.515 811.508 292.515L794.559 308.885Z" fill="white"/>
<path d="M501.615 313.666C495.162 319.357 490.376 327.396 481.784 330.029C474.75 332.213 463.264 327.624 453.617 326.713C441.604 325.575 435.872 321.819 435.055 313.459C433.635 298.989 445.734 288.673 466.243 288.296C485.29 287.976 498.496 297.751 501.615 313.666ZM462.232 307.376L464.383 309.155C464.634 312.043 464.874 314.932 465.103 317.82C468.33 316.974 474.288 315.956 474.202 315.316C473.718 311.901 473.18 307.149 469.814 305.633C466.448 304.118 458.425 304.844 454.962 306.672C451.682 308.408 448.95 314.014 450.767 315.871C455.155 320.36 461.522 325.12 468.695 326.927C473.567 328.165 485.72 325.454 486.752 323.042C489.656 316.227 491.054 308.209 488.301 301.507C485.031 293.326 469.685 290.601 456.532 293.824C444.078 296.876 440.067 301.792 442.734 310.991C445.605 308.301 447.799 303.969 451.208 303.492C459.532 302.339 469.437 301.457 476.643 303.563C479.869 304.502 479.245 313.025 477.998 317.842C477.492 319.805 470.47 322.509 466.856 322.246C463.243 321.982 457.769 318.688 457.177 316.319C456.532 313.587 460.35 310.379 462.232 307.376Z" fill="white"/>
<path d="M350.857 313.744C356.676 290.9 365.021 287.207 405.878 289.256C396.199 296.705 388.391 303.172 379.852 309.177C354.933 326.735 356.385 333.885 327.66 310.073C318.949 302.859 309.506 296.029 302.161 286.759C315.948 287.983 329.821 288.894 343.426 290.715C345.803 291.035 347.911 294.983 348.599 297.466C349.857 302.005 349.965 306.672 350.857 313.744ZM393.876 293.397C357.364 294.742 354.353 297.104 362.053 317.138L393.876 293.397ZM344.716 317.685C344.62 292.821 340.415 289.79 314.066 294.606L344.716 317.685Z" fill="white"/>
<path d="M151.941 205.669C151.941 203.535 151.618 201.351 151.876 199.21C152.812 191.576 157.952 189.591 167.857 194.144C178.042 198.818 188.291 203.436 198.497 208.081L197.927 207.69C205.649 213.168 213.285 218.71 221.125 224.117C238.504 236.105 256.109 247.957 273.328 260.045C277.043 262.7 279.045 266.21 278.909 269.827L214.382 229.104L214.919 229.552L176.87 203.827C175.794 210.301 175.289 213.36 174.783 216.419L175.052 216.27C171.632 208.444 163.9 204.695 151.521 205.257L151.941 205.669Z" fill="white"/>
<path d="M300.676 33.2597V0L329.854 15.7014L357.396 0.882182V37.1157L332.037 18.4476L300.537 33.281L300.676 33.2597Z" fill="white"/>
<path d="M847.396 218.668H732.806L732.709 215.11H779.309C771.63 210.322 767.587 207.811 762.908 204.901C752.218 209.035 740.603 217.572 732.086 201.892L745.54 208.451L762.328 200.775L779.987 208.978C790.16 201.458 800.582 201.863 806.464 206.132L839.933 205.115L840.513 208.473L850.494 203.706L852.462 205.022L840.987 213.559L825.93 206.21C816.133 212.208 805.367 216.078 795.258 205.207L779.976 214.37L847.73 216.789L847.396 218.668Z" fill="white"/>
<path d="M225.921 4.56741C242.473 4.04806 259.024 3.3224 275.586 3.24414C277.855 3.24414 282.179 6.45984 282.114 8.1246C281.652 18.5116 280.221 28.8772 278.726 42.8001L224.341 8.39495L225.921 4.56741ZM273.93 33.3664C275.22 23.7976 276.253 16.2492 277.436 7.49854H249.474C282.447 4.85199 262.412 24.6157 273.93 33.3664Z" fill="white"/>
<path d="M853.085 388.174C812.573 394.378 771.985 393.773 731.354 388.281C771.888 383.984 812.476 384.653 853.085 388.174Z" fill="white"/>
<path d="M326.617 349.273L294.288 369.364C295.805 356.487 296.514 345.837 298.784 335.329C299.182 333.522 306.204 331.132 310.184 331.117C319.863 331.075 329.542 332.277 341.791 333.159C338.156 338.388 335.338 342.472 332.521 346.541L326.617 349.273Z" fill="white"/>
<path d="M298.02 98.9395C344.813 122.723 376.238 156.324 420.214 181.914L414.697 185.429L294.127 101.437L298.02 98.9395Z" fill="white"/>
<path d="M625.207 244.976L694.95 201.429L697.499 203.258L585.748 275.739C589.62 271.783 593.179 268.162 596.653 264.598C606.124 258.105 615.642 251.564 625.207 244.976Z" fill="white"/>
<path d="M278.845 477.296C264.778 495.723 264.778 495.723 244.183 484.816C236.59 487.904 228.546 493.816 221.383 493.354C213.952 492.898 207.402 486.296 200.648 482.49C170.019 497.764 167.771 497.643 152.715 478.378L174.633 490.999C177.999 489.028 181.15 487.591 183.548 485.727C192.937 478.413 202.304 472.921 215.446 482.838C217.199 484.155 221.727 484.724 224.62 484.382C242.72 482.22 260.766 479.694 278.845 477.296Z" fill="white"/>
<path d="M642.048 351.308C645.64 350.148 651.254 347.388 652.513 348.078C665.665 355.342 678.119 363.153 690.767 370.844L688.444 373.754H608.591L606.655 370.908L617.237 364.505C616.463 373.448 622.324 370.012 627.992 367.038C647.447 356.836 647.35 356.921 667.053 368.119C670.204 369.905 674.753 370.623 678.646 371.84L682.41 367.657L642.048 351.308Z" fill="white"/>
<path d="M726.16 296.064L787.235 334.859L848.816 301.073L852.741 303.826C837.394 313.395 822.628 323.426 806.496 332.405C788.278 342.571 787.611 342.258 770.501 330.669C754.573 319.883 739.033 308.863 723.321 297.943L726.16 296.064Z" fill="white"/>
<path d="M205.025 488.679L221.469 505.391C231.632 499.699 237.73 493.745 244.925 493.09C251.291 492.514 258.906 497.871 267.961 501.4L281.146 496.533C272.069 510.371 268.402 510.442 246.441 497.8C239.365 501.869 232.127 506.031 223.545 510.954L201.25 497.345C195.594 500.681 189.7 503.811 184.441 507.347C177.257 512.171 171.761 511.936 166.352 505.996C161.824 501.016 156.468 496.384 151.489 491.596L155.586 489.64L175.805 505.206L205.025 488.679Z" fill="white"/>
<path d="M151.865 429.281C160.813 435.215 169.223 441.568 178.827 447.003C219.114 469.769 205.875 470.004 245.312 447.359C257.249 440.501 268.832 433.379 283.082 424.892C283.082 429.103 283.749 430.583 282.985 431.053C261.831 443.602 240.698 456.188 219.028 468.346C216.178 469.954 208.542 470.772 206.38 469.513C186.065 457.682 166.47 445.324 146.671 433.109L151.865 429.281Z" fill="white"/>
<path d="M203.982 512.391C191.399 516.852 180.225 524.066 172.224 522.764C163.437 521.341 157.565 512.05 150.424 506.195L154.92 503.826L174.224 519.15C190.421 512.704 206.929 495.324 224.115 518.36L250.259 506.543C255.497 510.506 260.089 513.978 265.401 517.983L279.447 513.878C280.372 514.54 281.307 515.202 282.232 515.87C277.565 518.431 272.08 523.532 268.402 522.985C261.003 521.932 254.582 517.827 246.022 514.262C232.299 526.136 216.726 525.375 203.982 512.391Z" fill="white"/>
<path d="M704.963 271.534L648.372 246.669L700.758 215.217L704.963 216.419V271.534ZM658.083 245.688L699.177 262.848V220.439L658.083 245.688Z" fill="white"/>
<path d="M812.067 168.483C811.874 178.307 803.711 184.476 790.913 184.483C768.329 184.483 760.005 180.669 760.413 170.489C760.876 158.814 772.975 149.252 787.235 149.295C801.765 149.338 812.283 157.469 812.067 168.483ZM783.783 169.279C784.095 170.275 784.396 171.278 784.697 172.274C788.354 171.563 794.989 171.093 795.129 170.14C795.57 167.23 794.935 163.182 792.107 161.454C789.709 159.988 780.782 160.102 779.793 161.318C776.932 164.826 774.179 169.856 775.997 173.142C777.814 176.429 784.837 179.773 790.279 180.385C794.849 180.897 802.636 178.393 805.109 175.675C811.411 168.739 809.519 161.446 799.818 156.132C791.214 151.429 781.062 151.152 772.932 156.509C763.994 162.414 762.994 169.557 768.63 179.375C770.469 171.897 770.436 166.782 773.147 162.414C776.567 156.893 783.557 153.514 792.881 157.32C802.205 161.126 804.26 167.223 798.732 173.271C796.979 175.191 789.601 176.579 786.342 175.704C783.084 174.829 781.073 170.887 780.288 168.07C780.062 167.28 786.084 165.722 789.246 164.513L791.225 167.06L783.783 169.279Z" fill="white"/>
<path d="M776.911 82.6119H801.851L802.205 80.7266L776.018 77.8808C777.266 76.5291 777.782 75.4833 778.309 75.4833C806.271 75.2129 806.271 75.2201 806.357 56.7298C806.411 43.3121 806.357 29.9015 806.357 15.6941L776.599 14.2285L776.663 12.0017L811.659 10.1733V89.9753L776.749 84.9952L776.911 82.6119Z" fill="white"/>
<path d="M625.207 244.976C615.642 251.545 606.124 258.086 596.653 264.598C593.33 265.928 589.91 267.315 586.49 268.703C585.415 267.892 584.339 267.073 583.264 266.262C608.257 241.775 640.822 221.911 675.613 203.364L625.207 244.976Z" fill="white"/>
<path d="M180.914 330.107C193.819 321.428 206.724 312.805 219.49 304.047C226.556 299.188 233.267 294.087 240.139 289.107L244.688 291.775L151.865 364.512L145.8 361.759C149.747 357.782 153.414 353.67 157.716 349.871C165.448 343.048 173.579 336.425 181.527 329.716L180.914 330.107Z" fill="white"/>
<path d="M614.086 175.177L600.106 161.496L583.35 175.227L579.597 173.591C585.307 168.611 590.426 160.073 596.879 159.575C604.644 159.028 613.516 165.367 623.282 169.272C627.229 167.643 633.133 165.715 638.069 163.047C648.716 157.249 658.191 155.179 668.946 163.367C671.097 165.004 679.872 164.513 684.002 163.04C702.65 156.345 708.856 157.861 718.621 174.06C714.534 172.346 711.308 171.72 710.017 170.318C702.005 161.731 692.81 163.204 683.131 168.689C676.001 172.751 669.838 173.278 664.106 167.608C657.804 161.368 651.297 162.009 642.296 166.049C633.692 169.927 623.142 171.933 613.441 174.765L614.086 175.177Z" fill="white"/>
<path d="M211.865 244.3C217.877 249.864 223.609 255.584 229.997 260.962C235.719 265.786 242.172 270.211 248.28 274.856L244.29 277.51C239.881 274.857 235.149 272.416 231.127 269.528C206.972 252.183 183.097 234.667 158.877 217.365C153.048 213.203 146.284 209.611 139.949 205.755L143.617 202.98L151.919 205.669L151.5 205.257L193.281 229.517L211.865 244.3Z" fill="white"/>
<path d="M295.31 291.106L342.221 326.77C305.484 331.629 292.664 322.324 295.31 291.106Z" fill="white"/>
<path d="M467.566 96.5635C472.739 100.327 478.191 103.948 483.02 107.897C493.775 116.647 504.637 125.341 514.424 134.54C517.349 137.293 519.726 143.227 517.478 145.012C499.711 159.077 480.773 172.502 462.189 186.119L458.016 183.807C460.715 181.545 463.243 179.183 466.136 177.027C479.256 167.245 492.043 157.249 505.831 147.858C513.036 142.978 511.595 139.556 505.831 134.946C493.528 125.185 481.794 115.104 469.953 105.065C467.722 102.978 465.65 100.817 463.748 98.5911L467.566 96.5635Z" fill="white"/>
<path d="M645.113 468.275V384.923C656.029 393.155 655.556 456.551 645.113 468.275Z" fill="white"/>
<path d="M271.564 56.5451C275.414 61.0604 279.257 65.5662 283.093 70.0624L279.544 71.8553C246.613 49.279 213.708 26.6908 180.827 4.09086L183.441 1.95654L201.831 9.37684L217.748 18.5401L269.273 54.8235L271.564 56.5451Z" fill="white"/>
<path d="M585.544 110.693L611.936 122.851L630.638 109.562C636.155 112.464 641.521 114.883 646.135 117.807C655.255 123.577 662.912 125.256 671.01 116.676C672.452 115.132 681.41 115.146 685.249 116.498C691.326 118.632 696.004 122.488 705.952 128.393C709.275 123.84 712.491 119.415 715.717 114.99L720.621 118.085L703.285 132.534L679.625 119.315C670.731 122.239 662.041 127.568 654.696 126.857C646.21 126.031 638.919 119.877 631.305 116.135C607.505 129.347 605.031 129.14 585.544 110.693Z" fill="white"/>
<path d="M734.484 577.552C736.2 577.552 737.592 550.924 737.592 518.076C737.592 485.228 736.2 458.6 734.484 458.6C732.767 458.6 731.376 485.228 731.376 518.076C731.376 550.924 732.767 577.552 734.484 577.552Z" fill="white"/>
<path d="M738.528 412.057C736.818 409.126 734.097 406.722 734.505 404.566C734.936 402.261 738.313 400.205 740.41 398.042C743.464 399.557 747.131 400.753 749.4 402.674C751.81 404.708 752.874 407.44 754.638 410.023L768.35 397.779C770.673 401.037 773.007 404.296 776.384 409.02C777.707 408.408 781.062 407.469 783.052 405.811C785.923 403.42 787.816 400.518 790.128 397.829C792.505 400.845 794.871 403.854 799.108 409.212L847.622 411.211L847.536 412.064L738.528 412.057Z" fill="white"/>
<path d="M275.479 412.058C256.12 427.709 236.816 443.425 216.64 459.795L148.94 418.226L152.489 415.494L215.941 453.285L277.834 413.687C277.07 413.146 276.274 412.634 275.479 412.058Z" fill="white"/>
<path d="M442.228 55.7838C457.543 55.7838 472.857 55.8479 488.172 55.7838C497.485 55.7269 509.014 58.1671 507.745 44.7139C521.93 63.2753 546.537 51.935 564.97 60.0098H442.368L442.228 55.7838Z" fill="white"/>
<path d="M102.093 185.351L2.87147 117.138L8.08744 113.83L107.266 182L102.093 185.351Z" fill="white"/>
<path d="M603.708 463.146V384.425H608.677V463.146H603.708Z" fill="white"/>
<path d="M563.83 389.605H446.39C446.491 388.087 446.591 386.571 446.691 385.058C485.849 385.642 525.275 382.248 563.83 389.605Z" fill="white"/>
<path d="M479.568 497.138L452.628 495.438C452.628 495.068 452.692 494.727 452.735 494.328H563.54C563.54 494.94 563.54 495.545 563.594 496.157H504.314C502.239 504.16 501.389 510.3 498.399 515.949C497.926 516.859 483.698 516.475 483.031 515.123C480.364 509.773 480.568 503.804 479.568 497.138Z" fill="white"/>
<path d="M198.497 208.081L182.365 194.564L184.161 193.283L237.246 217.415L250.808 225.952C260.401 234.319 269.99 242.69 279.576 251.066L277.156 252.895C273.93 251.102 270.574 249.401 267.477 247.502C248.85 235.941 230.428 224.238 211.553 212.834C207.778 210.55 202.455 209.39 197.852 207.711L198.497 208.081Z" fill="white"/>
<path d="M213.263 389.341C260.412 389.341 298.633 388.475 298.633 387.406C298.633 386.338 260.412 385.471 213.263 385.471C166.115 385.471 127.893 386.338 127.893 387.406C127.893 388.475 166.115 389.341 213.263 389.341Z" fill="white"/>
<path d="M613.42 174.764L622.776 181.986L652.394 167.821C658.933 172.616 664.654 176.813 670.247 180.904C700.026 168.71 702.295 169.073 713.201 188.73L694.756 174.501C668.096 184.76 668.096 184.76 651.889 173.078C648.931 174.046 644.877 174.622 642.521 176.266C631.917 183.643 621.561 186.731 606.257 180.676C601.267 178.699 591.33 182.199 584.242 183.117L601.106 170.105C605.891 171.954 609.978 173.534 614.065 175.127L613.42 174.764Z" fill="white"/>
<path d="M361.676 492.919V557.625H356.6V480.932L360.472 479.096C363.386 481.174 368.796 483.223 368.85 485.328C369.452 508.749 369.226 532.184 365.742 555.611V493.005L361.676 492.919Z" fill="white"/>
<path d="M260.53 314.804L277.586 307.64L280.974 309.774C250.861 332.156 220.766 354.54 190.689 376.927L186.205 374.6C195.21 366.803 204.208 359.001 213.199 351.194L214.468 350.753C229.997 338.625 245.523 326.497 261.046 314.37L260.53 314.804Z" fill="white"/>
<path d="M506.96 179.673C517.983 171.086 528.147 161.888 540.299 154.062C551.172 147.047 551.635 141.789 541.988 133.9C529.878 123.996 520.145 112.834 509.38 102.212L513.832 100.035C518.414 103.977 523.199 107.861 527.544 111.888C535.46 119.28 542.439 127.141 551.054 134.141C559.26 140.801 558.378 146.535 550.452 152.525C537.546 162.286 524.594 172.026 511.595 181.744L506.96 179.673Z" fill="white"/>
<path d="M484.612 180.705C497.7 170.688 510.617 160.571 523.941 150.697C531.534 145.062 533.513 140.48 524.028 134.334C514.348 128.037 506.573 120.432 498.378 113.19C494.618 110.042 492.807 106.067 493.312 102.07C507.885 113.887 522.705 125.583 536.75 137.642C538.783 139.385 538.901 143.966 536.825 145.631C521.264 158.437 504.96 170.873 488.882 183.416L484.612 180.705Z" fill="white"/>
<path d="M677.399 100.484L699.983 113.289L717.33 101.259L720.439 102.796L700.951 119.009L675.796 105.115L661.589 120.553C650.028 114.186 642.876 107.498 633.907 106.175C626.777 105.122 617.442 110.622 607.397 113.73C602.31 110.835 595.632 107.143 589.114 103.315C587.254 102.212 585.942 100.711 586.533 97.7231L610.279 109.561L631.552 98.6694L658.6 113.83L677.399 100.484Z" fill="white"/>
<path d="M752.82 4.80201V88.6307C749.669 88.6307 748.422 88.8868 747.669 88.588C742.292 86.4537 737.043 84.1913 731.752 81.9788C735.925 79.4887 741.292 77.4469 743.916 74.3806C746.131 71.7981 745.432 68.0275 745.561 64.7691C746.217 48.4558 746.637 32.1283 747.303 15.8079C747.454 12.0373 748.002 8.26671 748.379 4.49609L752.82 4.80201Z" fill="white"/>
<path d="M300.537 33.2808C322.293 45.8733 344.297 58.295 365.709 71.1507C375.163 76.8422 383.411 83.3803 392.198 89.5271L388.972 92.1025C385.057 90.1176 380.906 88.3105 377.271 86.1264C353.74 72.0115 330.166 57.9677 307.151 43.4757C303.473 41.1636 302.849 36.7384 300.698 33.2737C300.644 33.2707 300.59 33.2731 300.537 33.2808Z" fill="white"/>
<path d="M563.776 42.4513H445.971C445.971 41.6332 446.057 40.8079 446.089 39.9897H563.906L563.776 42.4513Z" fill="white"/>
<path d="M563.906 197.232H441.701C441.701 196.207 441.701 195.19 441.701 194.166H563.938L563.906 197.232Z" fill="white"/>
<path d="M127.012 260.678C114.891 253.748 102.276 247.16 91.1128 239.612C88.8328 238.068 90.36 231.559 93.4358 229.538C104.083 222.53 116.192 216.49 127.743 210.087L132.432 213.268L96.0491 234.312L132.862 256.409L127.012 260.678Z" fill="white"/>
<path d="M445.24 205.257H556.98C556.98 206.217 556.98 207.171 556.98 208.103H445.24V205.257Z" fill="white"/>
<path d="M441.153 274.224H568.057L567.992 277.276H441.368L441.153 274.224Z" fill="white"/>
<path d="M744.217 320.424C777.147 347.459 776.276 342.479 745.206 365.28C720.148 348.989 719.761 339.021 744.217 320.424ZM743.926 326.642C728.225 343.781 729.031 349.053 747.873 357.725C766.705 343.574 766.705 343.574 743.97 326.642H743.926Z" fill="white"/>
<path d="M848.117 242.301L732.924 238.936L733.118 237.314H848.805L848.117 242.301Z" fill="white"/>
<path d="M271.564 56.545L269.273 54.7807L217.748 18.4974L201.831 9.33405L199.347 2.73191L203.391 0.711426C224.183 14.5702 244.939 28.4361 265.66 42.3092C270.23 45.3826 275.242 48.4346 278.361 52.1199C282.62 57.1782 279.619 58.971 271.564 56.545Z" fill="white"/>
<path d="M734.247 463.857H852.72C852.634 464.839 852.537 465.821 852.451 466.803H733.462C733.699 465.814 733.968 464.832 734.247 463.857Z" fill="white"/>
<path d="M300.558 560.712V478.982L304.677 478.939V560.612L300.558 560.712Z" fill="white"/>
<path d="M559.636 354.523C559.636 371.021 558.668 371.968 541.504 371.861C529.104 371.79 515.886 373.64 517.177 359.767C519.005 340.145 517.908 340.558 545.709 339.789C565.368 339.249 558.872 348.056 559.636 354.523ZM552.85 345.502C522.586 343.147 518.435 346.641 526.501 366.774C557.162 368.524 558.216 367.671 552.85 345.502Z" fill="white"/>
<path d="M13.7443 462.491H114.407V465.28H13.7659L13.7443 462.491Z" fill="white"/>
<path d="M675.979 280.868L643.35 262.371L607.956 280.228L603.568 276.749C616.28 269.151 628.928 261.496 641.844 254.061C642.833 253.492 646.565 253.962 647.77 254.773C659.008 262.307 669.967 270.019 681.012 277.681L675.979 280.868Z" fill="white"/>
<path d="M417.385 276.97H303.881L303.752 274.644H417.278L417.385 276.97Z" fill="white"/>
<path d="M412.664 294.101C414.234 296.307 415.041 296.947 415.062 297.559C416.525 335.457 420.515 327.816 361.365 329.709C379.056 317.436 395.327 306.139 412.664 294.101ZM378.335 323.981C409.965 327.909 415.707 323.782 408.298 303.087L378.335 323.981Z" fill="white"/>
<path d="M400.328 183.216L300.053 117.629L302.204 116.206L401.565 182.37L400.328 183.216Z" fill="white"/>
<path d="M178.085 179.688L261.831 125.32C263.584 126.494 265.326 127.675 267.068 128.877L182.667 182.783L178.085 179.688Z" fill="white"/>
<path d="M214.468 350.774L213.199 351.215L176.311 374.031L173.568 372.608L271.585 298.064L274.339 299.316L260.53 314.818L261.046 314.406C245.531 326.524 230.005 338.647 214.468 350.774Z" fill="white"/>
<path d="M107.804 15.9791H9.22743V13.1333H107.976L107.804 15.9791Z" fill="white"/>
<path d="M131.625 387.107V455.597H126.119V386.858L131.625 387.107Z" fill="white"/>
<path d="M411.9 370.929L362.956 336.069C381.497 336.844 396.156 337.2 410.696 338.289C413.266 338.481 417.149 341.611 417.31 343.503C418.03 351.969 417.622 360.478 417.622 368.973L411.9 370.929ZM412.836 342.08L379.497 340.409C391.381 349.344 400.49 356.188 411.761 364.683C412.374 359.966 412.771 358.195 412.836 356.423C412.911 352.112 412.847 347.8 412.847 342.08H412.836Z" fill="white"/>
<path d="M638.704 313.744C651.416 305.84 658.062 301.649 664.827 297.53C671.591 293.411 678.216 289.612 684.916 285.656L688.809 288.395C679.851 294.129 670.935 299.899 661.923 305.591C640.543 319.108 646.651 320.204 623.637 304.879C615.528 299.472 608.128 293.596 602.525 286.524L638.704 313.744Z" fill="white"/>
<path d="M211.865 244.301L193.303 229.517C196.217 219.678 180.397 221.115 175.02 216.27L174.751 216.419C182.107 218.475 193.916 219.415 195.905 222.822C200.046 229.979 206.198 230.257 214.887 229.538L214.349 229.09C215.662 233.273 216.977 237.459 218.296 241.647L222.985 239.947C227.233 244.158 231.008 248.626 235.891 252.482C238.896 254.9 242.869 256.709 247.355 257.704C257.819 259.732 259.594 263.808 257.346 268.376C239.246 262.841 232.794 248.114 211.865 244.301Z" fill="white"/>
<path d="M339.178 560.307V479.815H343.189V560.492L339.178 560.307Z" fill="white"/>
<path d="M421.052 35.7924L394.166 16.4413L424.623 2.13428V34.6541L421.052 35.7924Z" fill="white"/>
<path d="M566.272 540.799H443.261C443.261 539.682 443.261 538.558 443.261 537.434C484.182 534.489 525.211 538.181 566.164 537.783C566.175 538.793 566.218 539.796 566.272 540.799Z" fill="white"/>
<path d="M442.013 262.677H563.852L563.744 265.402H441.927C441.938 264.491 442.013 263.587 442.013 262.677Z" fill="white"/>
<path d="M566.971 524.585H443.293C443.293 523.596 443.293 522.608 443.239 521.619H566.809L566.971 524.585Z" fill="white"/>
<path d="M761.671 88.9868V6.89404H765.597V88.9868H761.671Z" fill="white"/>
<path d="M326.617 349.273L332.521 346.541L351.406 336.951C351.406 348.91 351.685 357.946 351.126 366.952C351.04 368.489 347.416 371.143 345.276 371.221C332.005 371.62 318.68 371.42 303.677 371.42L326.617 349.273ZM313.539 367.394C348.362 368.105 352.718 364.583 341.705 346.548L313.539 367.394Z" fill="white"/>
<path d="M130.475 511.139L5.83973 507.347L5.71068 503.57C10.8944 503.406 16.0888 503.015 21.251 503.136C29.3492 503.321 37.3829 504.039 45.5134 504.153C48.6537 504.196 51.8908 502.645 54.9666 502.801C79.0677 504.046 103.147 505.505 127.216 506.992C128.496 507.07 129.668 507.938 130.894 508.414L130.475 511.139Z" fill="white"/>
<path d="M157.243 547.892H276.855V550.738C236.87 552.033 196.927 556.358 156.866 550.738C157.017 549.756 157.124 548.824 157.243 547.892Z" fill="white"/>
<path d="M300.956 66.6548L334.941 88.1189L298.192 91.0144L295.353 68.3765L300.956 66.6548Z" fill="white"/>
<path d="M834.007 325.753C856.193 345.609 856.193 345.609 830.028 366.362C799.065 352.724 800.141 338.929 834.007 325.753ZM829.458 359.468C848.977 343.525 849.074 341.02 830.533 331.245C808.099 345.687 808.034 347.352 829.458 359.468Z" fill="white"/>
<path d="M633.886 463.857C613.85 454.544 613.839 454.466 628.175 441.091C615.667 434.638 620.905 428.506 631.401 422.516C620.174 416.027 614.108 409.276 628.874 401.777C623.68 396.171 614.043 390.309 633.488 385.862C620.851 393.802 646.576 404.36 624.228 409.468C637.747 422.701 637.747 422.701 626.992 431.757L631.616 432.582C629.906 437.89 627.938 443.169 626.616 448.519C625.992 451.023 625.734 453.854 626.917 456.181C628.358 458.934 631.498 461.303 633.886 463.857Z" fill="white"/>
<path d="M579.876 372.793V289.847L582.758 289.889V372.701L579.876 372.793Z" fill="white"/>
<path d="M746.368 561.21V478.883H750.454V561.047L746.368 561.21Z" fill="white"/>
<path d="M99.7272 453.321H13.2927C24.3376 445.716 80.3259 444.919 99.7272 453.321Z" fill="white"/>
<path d="M8.24876 525.19H129.905L129.851 527.275H8.4531L8.24876 525.19Z" fill="white"/>
<path d="M443.777 559.36H564.293V562H443.798C443.788 561.118 443.788 560.235 443.777 559.36Z" fill="white"/>
<path d="M388.885 559.802V480.121H392.542V559.802H388.885Z" fill="white"/>
<path d="M827.748 561.154V478.492L831.738 478.534V561.061L827.748 561.154Z" fill="white"/>
<path d="M225.093 275.469H144.24V272.523H225.04C225.029 273.505 225.061 274.487 225.093 275.469Z" fill="white"/>
<path d="M276.715 532.589H156.264L156.21 530.191H276.511C276.586 530.995 276.651 531.792 276.715 532.589Z" fill="white"/>
<path d="M159.523 539.981H276.221L276.081 541.923H159.372L159.523 539.981Z" fill="white"/>
<path d="M459.651 63.7873C472.395 62.6632 480.235 64.7406 478.579 73.9466C477.267 81.061 482.687 90.6085 462.038 89.8401C441.185 89.0647 440.529 88.9437 439.454 76.5292C438.346 65.5872 445.519 62.1225 459.651 63.7873ZM474.868 72.787C470.05 71.0155 465.49 68.2694 460.371 67.6718C451.133 66.5904 444.992 68.6037 445.164 76.3228C445.315 83.5155 449.746 85.5075 459.93 85.6284C471.825 85.7707 473.47 81.4808 474.868 72.787Z" fill="white"/>
<path d="M128.614 7.36319H5.09767C23.0901 1.35155 99.91 1.33732 128.614 7.36319Z" fill="white"/>
<path d="M579.887 253.272L660.643 195.788L664.945 198.384L584.479 256.231C582.938 255.254 581.407 254.268 579.887 253.272Z" fill="white"/>
<path d="M446.681 551.712H564.475V553.633H446.648L446.681 551.712Z" fill="white"/>
<path d="M586.253 467.542V386.915L589.48 386.851V467.642L586.253 467.542Z" fill="white"/>
<path d="M250.807 225.924L237.246 217.387C231.46 212.585 233.858 202.888 218.275 203.585C217.361 203.628 215.92 198.52 214.64 195.646L238.203 201.437L237.622 201.017C235.471 208.608 238.504 213.638 251.657 214.435C254.378 214.598 257.486 216.242 259.293 217.785C264.175 221.926 268.445 226.38 274.855 232.519L250.807 225.924Z" fill="white"/>
<path d="M591.652 87.3787V11.7173H595.18V87.4854L591.652 87.3787Z" fill="white"/>
<path d="M278.673 559.979H156.899L157.006 557.81H278.78C278.748 558.535 278.705 559.261 278.673 559.979Z" fill="white"/>
<path d="M418.418 257.882H326.337V255.036H418.676L418.418 257.882Z" fill="white"/>
<path d="M546.806 66.3059C559.163 67.0174 571.541 66.3059 569.605 78.4786C568.207 87.0728 566.379 92.558 549.666 92.3445C529.792 92.0813 531.889 84.2911 531.771 75.6471C531.653 67.8142 536.298 64.9044 546.806 66.3059ZM539.589 72.4883C535.288 86.9874 538.288 88.9866 560.604 86.6175C566.906 72.1113 563.884 70.0765 539.589 72.4883Z" fill="white"/>
<path d="M848.418 197.46H733.667C733.667 196.748 733.667 196.087 733.742 195.396H848.536C848.536 196.087 848.45 196.77 848.418 197.46Z" fill="white"/>
<path d="M131.098 501.329C119.655 500.447 108.223 498.931 96.7589 498.832C79.0031 498.675 61.2688 499.657 43.4485 499.778C38.3616 499.778 33.1779 498.718 28.1555 497.836C22.0361 496.761 16.0351 495.36 9.6361 494.029C13.1959 490.344 18.6377 488.687 28.2523 493.161C33.0381 495.388 40.6738 495.118 47.0835 495.58C53.4933 496.043 59.7309 495.822 66.0331 496.171C71.3136 496.47 76.5403 497.537 81.8208 497.594C98.3721 497.786 114.934 497.665 131.485 497.665L131.098 501.329Z" fill="white"/>
<path d="M591.771 369.165V295.46L594.75 295.56V369.236L591.771 369.165Z" fill="white"/>
<path d="M300.633 128.977L373.517 179.368L368.957 182.213L295.912 132.043L300.633 128.977Z" fill="white"/>
<path d="M570.412 481.422H445.809C458.919 475.325 539.331 475.638 570.412 481.422Z" fill="white"/>
<path d="M289.019 247.338L376.131 194.692L378.787 196.414L288.449 246.869L289.019 247.338Z" fill="white"/>
<path d="M821.166 7.67639V88.4672H817.832V7.49854L821.166 7.67639Z" fill="white"/>
<path d="M248.097 360.286L226.405 362.833V375.091C216.178 363.16 217.361 361.026 232.772 357.305C236.149 356.494 241.15 353.847 241.01 352.225C240.085 342.187 248.398 339.519 262.111 340.43C263.283 333.934 260.885 325.852 274.457 326.713C271.969 332.96 269.495 339.197 267.036 345.424L267.671 344.983C246.828 344.343 246.828 344.343 247.366 360.635L248.097 360.286Z" fill="white"/>
<path d="M485.978 79.5816C486.43 71.5139 484.956 65.0754 500.959 65.3529C515.886 65.5805 521.952 68.7038 520.887 78.6994C520.124 85.8921 519.521 91.7188 504.863 91.1638C491.689 90.6303 483.053 88.2754 485.978 79.5816ZM511.23 87.1727L516.317 84.0993C514.477 79.6528 514.015 74.5375 510.197 71.0373C508.401 69.401 497.722 69.465 495.367 71.2507C492.14 73.7123 490.151 80.229 492.581 81.9223C496.861 84.9245 504.809 85.5577 511.23 87.1727Z" fill="white"/>
<path d="M24.2946 378.314C17.4762 372.018 10.0233 367.927 11.1095 365.508C13.0238 361.332 19.5088 356.138 25.3485 355.32C29.6504 354.723 40.8566 361.012 40.2651 363.231C39.0391 367.813 31.9518 371.591 24.2946 378.314Z" fill="white"/>
<path d="M367.634 35.1238V2.50439C393.618 12.3934 394.101 19.9204 367.634 35.1238Z" fill="white"/>
<path d="M134.701 17.4443V89.9469H130.958V17.4941L134.701 17.4443Z" fill="white"/>
<path d="M446.444 485.912H567.272V488.658H445.627C445.896 487.704 446.164 486.794 446.444 485.912Z" fill="white"/>
<path d="M318.658 264.655H417.934L417.794 266.789H318.529L318.658 264.655Z" fill="white"/>
<path d="M485.333 402.567L563.841 406.458C563.723 407.974 563.594 409.489 563.475 411.012L484.838 408.5L485.333 402.567Z" fill="white"/>
<path d="M469.642 396.598H562.873C562.873 397.537 562.873 398.476 562.798 399.444H469.824L469.642 396.598Z" fill="white"/>
<path d="M628.25 158.046C620.883 151.928 612.957 148.2 613.312 144.856C613.667 141.512 621.916 136.027 627.11 135.842C631.875 135.671 640.446 140.95 641.199 144.379C641.909 147.694 634.649 151.728 628.25 158.046Z" fill="white"/>
<path d="M356.783 87.45L372.055 89.4705L371.979 91.1353H353.826C353.202 87.9196 352.6 84.8106 351.9 81.2534C341.318 79.8305 326.885 80.5846 332.327 68.1345C321.809 66.0571 305.914 69.8277 308.785 57.1001L296.955 57.5981L295.987 55.6914L312.227 50.9248C313.862 55.2575 315.109 58.6012 316.464 62.2011L335.285 63.624L337.565 75.135C345.308 78.8345 366.032 73.0007 356.783 87.45Z" fill="white"/>
<path d="M805.701 548.163V561.033H798.463C798.463 546.676 797.957 532.312 798.614 517.969C799.248 503.861 801.066 489.768 802.431 475.013C804.518 480.235 806.131 484.212 807.68 488.189C808.336 489.896 810.239 492.308 809.196 493.233C802.335 499.323 808.518 508.585 805.529 511.573C795.097 522.01 808.099 532.333 801.754 542.051C800.797 543.51 804.647 546.32 806.282 548.54L805.701 548.163Z" fill="white"/>
<path d="M702.414 555.142C704.242 548.028 705.844 541.831 707.458 535.62L713.179 536.04C711.953 543.759 714.179 556.608 708.877 558.18C695.821 562.036 679.324 560.613 664.224 561.275C664.095 559.738 663.977 558.208 663.848 556.679L702.414 555.142Z" fill="white"/>
<path d="M181.752 461.204C171.665 465.131 165.674 469.307 160.168 469.029C155.242 468.795 150.844 463.665 146.187 460.698C151.446 457.269 156.07 451.955 162.168 451.066C166.341 450.489 172.514 456.152 181.752 461.204Z" fill="white"/>
<path d="M299.622 151.835C318.099 155.478 325.788 167.43 337.834 175.938C339.619 177.205 338.081 180.527 338.081 182.903L333.542 183.757L295.611 154.382L299.622 151.835Z" fill="white"/>
<path d="M827.78 267.849L816.746 275.853C819.101 267.693 830.071 260.031 817.821 250.953L831.802 258.558L843.557 246.897L849.332 248.484C837.782 258.252 831.329 268.041 848.074 278.364L843.234 279.076L827.78 267.849Z" fill="white"/>
<path d="M422.418 474.265L367.807 433.528L372.571 430.683L428.355 470.708L422.418 474.265Z" fill="white"/>
<path d="M448.778 544.812H557.937V546.476H448.767C448.767 545.921 448.778 545.366 448.778 544.812Z" fill="white"/>
<path d="M607.752 21.9409V86.5679H604.708V21.9765L607.752 21.9409Z" fill="white"/>
<path d="M586.017 504.338C586.576 496.854 583.146 484.937 588.544 482.803C599.557 478.449 615.334 479.359 629.143 478.1C629.53 479.746 629.914 481.389 630.294 483.03C625.744 483.464 621.012 484.652 616.668 484.204C598.18 482.319 591.932 488.153 593.008 499.422C593.169 501.072 592.265 502.766 591.846 504.402L586.017 504.338Z" fill="white"/>
<path d="M405.62 371.883C365.828 377.46 355.299 370.46 360.569 344.891C374.625 353.307 389.413 362.164 405.62 371.883ZM365.236 348.675C364.107 369.307 368.957 372.096 396.199 367.593L365.236 348.675Z" fill="white"/>
<path d="M139.25 261.681H208.822C203.261 266.882 160.695 267.856 139.25 261.681Z" fill="white"/>
<path d="M624.658 561.637C612.828 561.033 597.632 563.103 590.061 559.019C583.436 555.462 585.35 544.961 586.49 536.296C588.824 552.659 602.869 558.486 626.992 556.33C626.218 558.094 625.433 559.901 624.658 561.637Z" fill="white"/>
<path d="M426.752 386.745L373.248 418.247C383.379 405.263 406.706 396.947 422.504 384.034L426.752 386.745Z" fill="white"/>
<path d="M282.964 460.357C274.812 464.206 269.424 468.716 264.853 468.375C260.282 468.033 252.195 462.278 253.023 460.058C254.421 456.202 261.465 453.242 266.154 449.906L282.964 460.357Z" fill="white"/>
<path d="M215.317 182.733C205.047 169.877 205.638 169.286 231.041 166.369C230.449 156.367 237.149 150.889 254.012 153.478C258.25 147.616 255.496 136.646 271.015 140.95C267.509 145.105 265.337 150.035 260.422 152.888C255.045 155.997 247.151 157.156 238.031 159.881C237.644 161.738 236.827 165.573 235.88 170.268L216.576 171.897C216.167 175.063 215.78 178.571 215.317 182.733Z" fill="white"/>
<path d="M78.2826 441.376H13.9809L13.8089 438.395H78.1428L78.2826 441.376Z" fill="white"/>
<path d="M116.149 87.507V26.0459H119.376V87.7418L116.149 87.507Z" fill="white"/>
<path d="M171.579 395.118H258.271L258.336 397.594H171.6C171.589 396.769 171.579 395.943 171.579 395.118Z" fill="white"/>
<path d="M850.375 456.743H738.474L738.538 455.128H850.494C850.461 455.69 850.418 456.231 850.375 456.743Z" fill="white"/>
<path d="M581.618 235.614L639.241 194.479L643.855 197.225L586.856 238.623L581.618 235.614Z" fill="white"/>
<path d="M757.122 275.326L746.067 265.046L733.882 276.037C743.991 265.793 743.873 256.644 731.838 246.911L748.519 257.007L761.575 245.624L765.963 247.004C760.134 256.089 742.173 264.341 765.769 275.461L757.122 275.326Z" fill="white"/>
<path d="M8.72196 23.6411H97.3719L97.2859 25.5478H8.72196V23.6411Z" fill="white"/>
<path d="M356.654 233.615H417.891L417.751 238.637L356.59 236.759L356.654 233.615Z" fill="white"/>
<path d="M115.074 387.313V443.389H109.697C107.614 424.724 107.564 405.984 109.546 387.313H115.074Z" fill="white"/>
<path d="M604.3 360.236V304.581L607.956 304.63V360.549L604.3 360.236Z" fill="white"/>
<path d="M267.036 345.446L282.964 342.045L271.134 355.47L271.532 355.157L238.192 376.194L234.03 374.117L248.011 360.286L247.28 360.656C254.055 355.439 260.824 350.222 267.585 345.005L267.036 345.446Z" fill="white"/>
<path d="M682.432 464.711C684.927 438.279 687.436 411.851 689.96 385.428L693.896 385.563L686.83 464.867L682.432 464.711Z" fill="white"/>
<path d="M419.59 250.312L344.308 247.359C344.405 245.937 344.512 244.514 344.609 243.091L419.891 246.036L419.59 250.312Z" fill="white"/>
<path d="M250.055 95.0127C256.357 100.128 263.186 103.55 262.304 105.385C260.336 109.434 254.529 112.663 250.281 116.228C245.828 113.766 237.375 111.006 237.762 108.914C238.472 104.887 244.129 101.238 250.055 95.0127Z" fill="white"/>
<path d="M802.55 279.595L790.72 267.685L778.277 278.563C791.182 267.628 785.923 257.156 772.996 246.726L777.965 246.335L791.386 259.141L805.367 248.583C792.462 258.607 796.086 268.639 806.83 278.833L802.55 279.595Z" fill="white"/>
<path d="M128.861 518.638H15.4866L15.5619 517.151H128.947L128.861 518.638Z" fill="white"/>
<path d="M526.157 494.378C532.384 500.617 538.611 504.103 537.987 506.864C537.094 510.556 530.867 513.686 526.92 517.066C522.49 514.49 514.37 511.872 514.456 509.368C514.553 505.398 520.167 501.507 526.157 494.378Z" fill="white"/>
<path d="M620.13 89.3993V33.0961L622.755 32.9609V89.2783L620.13 89.3993Z" fill="white"/>
<path d="M338.619 44.1875H419.192L419.095 45.9946H338.543L338.619 44.1875Z" fill="white"/>
<path d="M424.86 483.635V555.348H422.128V483.187L424.86 483.635Z" fill="white"/>
<path d="M106.739 34.8604V86.6601L104.427 86.5819V34.8604H106.739Z" fill="white"/>
<path d="M577.327 508.628C568.369 512.584 562.443 516.959 559.249 516.212C554.022 514.995 548.903 510.791 547.128 507.127C546.376 505.562 554.495 499.927 557.958 500.162C563.314 500.525 568.132 504.338 577.327 508.628Z" fill="white"/>
<path d="M677.377 130.086C683.41 136.134 689.379 139.47 688.906 142.337C688.347 145.702 682.163 148.648 678.431 151.778C673.925 149.167 666.031 146.706 665.762 143.917C665.429 140.452 671.408 136.731 677.377 130.086Z" fill="white"/>
<path d="M350.234 433.329C334.381 444.807 318.522 456.28 302.655 467.749L298.278 465.138L345.373 430.277L350.234 433.329Z" fill="white"/>
<path d="M685.379 385.009C683.228 410.829 681.052 436.647 678.85 462.463L675.495 462.342C677.495 436.564 679.499 410.791 681.507 385.023L685.379 385.009Z" fill="white"/>
<path d="M345.093 424.472L298.042 388.445L303.279 385.457L349.739 421.605L345.093 424.472Z" fill="white"/>
<path d="M777.717 351.45C776.706 358.209 776.642 365.16 773.803 371.563C773.276 372.751 761.446 371.733 751.982 371.733L773.383 350.739L777.717 351.45Z" fill="white"/>
<path d="M798.151 349.828L817.348 372.174C793.795 378.656 793.279 371.847 798.151 349.828Z" fill="white"/>
<path d="M399.328 421.527C400.522 424.799 400.21 428.94 403.189 431.181C410.567 436.73 419.45 441.412 427.72 446.448L423.418 449.806C417.74 446.484 412.094 443.147 406.383 439.846C399.328 435.756 392.23 431.7 384.584 426.713C393.908 429.559 386.735 414.669 399.64 421.733L399.328 421.527Z" fill="white"/>
<path d="M705.737 503.698C714.341 483.913 691.111 485.784 675.345 482.589C676.162 481.266 676.983 479.943 677.807 478.62C688.938 479.751 702.425 478.819 710.372 482.76C715.459 485.286 712.362 495.018 712.943 501.521L705.737 503.698Z" fill="white"/>
<path d="M238.203 201.465L236.364 196.243L239.655 193.867L284.265 220.503L280.694 223.448L237.676 201.045L238.203 201.465Z" fill="white"/>
<path d="M179.956 170.411C173.407 174.302 168.546 179.047 165.62 178.571C160.652 177.745 153.79 173.769 153.565 170.958C153.339 168.148 160.103 163.993 164.975 163.005C167.911 162.414 173.149 166.846 179.956 170.411Z" fill="white"/>
<path d="M319.755 207.74C339.296 204.894 339.296 204.894 342.426 197.502C348.029 207.725 346.953 208.679 326.294 210.827C327.23 220.489 318.518 224.409 304.344 224.181C303.419 228.2 302.623 231.637 301.569 236.183C295.428 223.839 297.214 222.118 318.637 218.703C319.185 215.067 319.777 211.197 320.368 207.32L319.755 207.74Z" fill="white"/>
<path d="M501.981 413.345L564.357 415.586L564.293 417.272H501.916L501.981 413.345Z" fill="white"/>
<path d="M76.6371 35.5293H9.38875L9.52855 34.2559H76.7877L76.6371 35.5293Z" fill="white"/>
<path d="M634.897 86.8454V40.4383L638.973 40.3672V86.7956L634.897 86.8454Z" fill="white"/>
<path d="M515.768 425.738H563.992L563.895 428.463H515.725L515.768 425.738Z" fill="white"/>
<path d="M8.17348 41.5054H63.1079V43.7606H8.19499L8.17348 41.5054Z" fill="white"/>
<path d="M655.04 328.912H714.104C714.104 329.901 714.05 330.889 714.018 331.871H655.029C655.029 330.889 655.04 329.901 655.04 328.912Z" fill="white"/>
<path d="M422.106 54.2115H355.062C355.062 53.5001 355.062 52.8456 355.138 52.1626H422.268L422.106 54.2115Z" fill="white"/>
<path d="M277.07 158.608L236.203 181.595L231.901 178.365L272.209 154.887L277.07 158.608Z" fill="white"/>
<path d="M279.425 187.25L249.786 182.42L277.318 168.518C278.113 175.576 278.683 180.577 279.425 187.25Z" fill="white"/>
<path d="M389.552 456.643C359.687 476.215 350.459 475.752 330.467 454.032C348.911 468.631 368.269 472.252 389.552 456.643Z" fill="white"/>
<path d="M89.9835 431.914V390.081H93.0916V431.793L89.9835 431.914Z" fill="white"/>
<path d="M78.6912 51.8852V88.7305L73.314 88.6025L76.3575 51.7998L78.6912 51.8852Z" fill="white"/>
<path d="M186.172 406.537H243.516V409.247H185.818L186.172 406.537Z" fill="white"/>
<path d="M314.916 183.309C308.388 183.309 297.386 184.732 296.203 183.032C293.213 178.841 294.654 173.271 294.321 168.248L299.547 167.024L316.421 180.143C315.916 181.196 315.421 182.256 314.916 183.309Z" fill="white"/>
<path d="M567.175 152.497L531.599 185.934L527.361 183.971L562.389 150.37L567.175 152.497Z" fill="white"/>
<path d="M419.923 223.135H378.142C378.056 222.288 377.97 221.442 377.894 220.595H419.429L419.923 223.135Z" fill="white"/>
<path d="M53.9127 418.048H12.3893V415.494H53.8697L53.9127 418.048Z" fill="white"/>
<path d="M622.604 194.813L580.855 218.781L581.511 219.429L619.281 193.105L622.604 194.813Z" fill="white"/>
<path d="M373.969 554.21V483.137H376.206V553.996L373.969 554.21Z" fill="white"/>
<path d="M666.848 319.179H710.308L710.232 321.683H666.784L666.848 319.179Z" fill="white"/>
<path d="M832.404 14.9404C842.299 19.2091 848.536 24.1464 837.19 32.9754C834.717 34.9105 837.9 40.2391 839.094 43.9244C840.169 47.2041 842.073 50.3629 840.051 54.2971C838.567 51.4514 838.233 47.8942 835.373 45.9662C826.823 40.1893 827.404 35.7571 834.641 29.1549C837.922 26.1883 833.372 19.5007 832.404 14.9404Z" fill="white"/>
<path d="M536.535 100.533L565.992 130.193L561.098 132.391L531.566 103.222L536.535 100.533Z" fill="white"/>
<path d="M359.633 59.0493H416.202V61.269H359.891L359.633 59.0493Z" fill="white"/>
<path d="M152.382 253.777H203.261V255.961H152.349L152.382 253.777Z" fill="white"/>
<path d="M13.2711 426.471H63.3875V429.459H13.1528L13.2711 426.471Z" fill="white"/>
<path d="M127.463 223.69V243.262L106.234 235.08L127.463 223.69Z" fill="white"/>
<path d="M649.641 87.4285V55.606H653.545V87.6206L649.641 87.4285Z" fill="white"/>
<path d="M366.054 455.028L378.755 451.051L380.648 452.602C373.84 456.643 367.021 460.684 359.289 465.259L338.371 450.589L340.415 448.889C344.77 451.5 349.201 454.075 353.492 456.714C359.493 460.464 363.892 460.058 366.559 454.666L366.054 455.028Z" fill="white"/>
<path d="M320.347 207.355L295.815 218.859L297.568 219.798L327.896 195.055L330.789 196.3L319.755 207.74L320.347 207.355Z" fill="white"/>
<path d="M146.402 246.292H187.958L187.829 250.39L146.155 249.11L146.402 246.292Z" fill="white"/>
<path d="M619.195 344.542V315.167L621.937 315.088V344.478L619.195 344.542Z" fill="white"/>
<path d="M677.356 308.052H711.136L711.362 310.279H677.635C677.538 309.525 677.452 308.764 677.356 308.052Z" fill="white"/>
<path d="M74.7766 389.611V415.935L71.5502 415.991V389.704L74.7766 389.611Z" fill="white"/>
<path d="M477.181 6.99336C476.593 15.3172 475.998 23.641 475.395 31.9648L471.169 31.851V6.85107L477.181 6.99336Z" fill="white"/>
<path d="M376.937 67.0176H417.654C417.654 67.729 417.654 68.4831 417.654 69.2159H376.787L376.937 67.0176Z" fill="white"/>
<path d="M63.6456 62.1584V87.6492H60.9354V62.1157L63.6456 62.1584Z" fill="white"/>
<path d="M664.633 87.3502L666.311 63.7305L670.29 63.7945V87.6063L664.633 87.3502Z" fill="white"/>
<path d="M200.508 417.458H230.621L214.231 428.89L200.508 417.458Z" fill="white"/>
<path d="M275.059 205.115L257.97 198.356C268.208 195.83 278.705 192.921 279.103 201.75L275.059 205.115Z" fill="white"/>
<path d="M271.177 355.47C273.467 357.263 278.006 360.45 277.715 360.642C270.015 366.127 261.809 371.314 253.69 376.543L249.979 374.138L271.564 355.178L271.177 355.47Z" fill="white"/>
<path d="M399.629 421.698C399.554 419.293 398.016 415.472 399.629 414.733C406.856 411.453 415.008 409.041 422.827 406.345L425.763 409.34L399.328 421.527L399.629 421.698Z" fill="white"/>
<path d="M10.5825 289.769H45.922L45.6209 293.881L10.4427 292.074L10.5825 289.769Z" fill="white"/>
<path d="M622.131 287.356L657.696 291.326C649.974 293.311 644.253 296.164 639.274 295.673C634.294 295.182 629.982 291.376 622.131 287.356Z" fill="white"/>
<path d="M423.73 212.151H396.263C396.263 211.354 396.263 210.557 396.263 209.76H423.73C423.73 210.586 423.73 211.354 423.73 212.151Z" fill="white"/>
<path d="M547.408 32.726V9.95996H550.989V32.9465L547.408 32.726Z" fill="white"/>
<path d="M564.884 437.883L527.942 436.239L528.329 432.561L565.379 433.77L564.884 437.883Z" fill="white"/>
<path d="M8.44234 316.07L43.0183 317.415L42.8462 320.09H8.24876L8.44234 316.07Z" fill="white"/>
<path d="M40.1253 406.586H13.2389L13.1744 404.203H40.0608L40.1253 406.586Z" fill="white"/>
<path d="M525.103 9.68986L521.705 32.1144L516.069 31.7373C517.123 24.3621 518.173 16.9845 519.22 9.60449L525.103 9.68986Z" fill="white"/>
<path d="M507.67 9.33398V31.5237H504.239V9.3909L507.67 9.33398Z" fill="white"/>
<path d="M458.435 28.1516V8.35938H461.855V28.1444L458.435 28.1516Z" fill="white"/>
<path d="M832.856 83.1031L843.707 90.9289L841.557 92.5652L828.103 85.3725C828.425 78.2582 849.311 75.9033 833.695 67.1455C852.956 72.652 840.782 77.7886 832.856 83.1031Z" fill="white"/>
<path d="M711.598 354.438L679.872 352.162C680.055 350.966 680.227 349.778 680.41 348.604L712.276 350.404L711.598 354.438Z" fill="white"/>
<path d="M366.559 454.68L343.576 445.694L346.652 442.642L359.558 449.045L376.572 443.012L366.075 455.028L366.559 454.68Z" fill="white"/>
<path d="M14.3359 534.154V555.633L12.0881 555.761V534.396L14.3359 534.154Z" fill="white"/>
<path d="M89.4243 84.6042V40.8579H91.715V84.6611L89.4243 84.6042Z" fill="white"/>
<path d="M11.0772 308.878H43.8679L43.9862 310.842H11.3676L11.0772 308.878Z" fill="white"/>
<path d="M654.007 281.302C645.544 274.145 636.8 273.292 627.605 280.89L625.26 277.247C630.326 275.148 635.413 271.364 640.435 271.399C646.146 271.399 651.803 274.885 657.481 276.856L654.007 281.302Z" fill="white"/>
<path d="M461.791 507.433L456.252 510.663C455.177 509.709 453.574 508.834 453.241 507.774C453.037 507.127 454.854 505.512 455.639 505.547C457.317 505.626 458.919 506.487 461.791 507.433Z" fill="white"/>
<path d="M189.635 308.159L175.138 322.096L163.308 328.727L158.856 328.051C159.662 318.318 157.78 307.889 162.792 299.245C164.502 296.321 183.882 297.921 197.4 297.359L189.635 308.159Z" fill="white"/>
<path d="M217.748 18.5327L269.273 54.816L217.748 18.5327Z" fill="black"/>
<path d="M214.468 350.774C229.997 338.646 245.523 326.519 261.046 314.391C245.531 326.519 230.005 338.646 214.468 350.774Z" fill="black"/>
<path d="M478.869 429.046L499.722 444.862L497.937 447.793C490.871 447.337 479.998 448.504 477.6 446.057C473.298 441.689 474.191 435.129 472.911 429.487L478.869 429.046Z" fill="white"/>
<path d="M170.073 29.7593L238.042 77.6675C213.597 77.6675 193.066 77.8311 172.557 77.4612C170.094 77.4185 165.717 74.6154 165.653 72.9791C165.104 58.9424 165.341 44.8915 165.341 30.8407L170.073 29.7593ZM170.772 34.782C170.772 47.5879 170.697 57.3559 170.836 67.1097C170.836 68.8528 171.708 70.5887 172.127 72.1681C199.605 76.1521 203.627 75.526 213.866 65.445L199.831 55.6414L177.934 67.4655L173.633 64.2355L195.497 52.9237L170.772 34.782Z" fill="white"/>
<path d="M670.72 35.2661C669.333 31.8583 666.633 28.4221 666.805 25.0427C667.182 17.6722 675.172 13.1973 685.002 14.5419C690.82 15.3387 698.155 20.9449 699.241 25.0499C701.026 31.837 693.864 36.4827 682.69 36.6321C678.506 36.6819 674.28 35.4866 670.075 34.8606L670.72 35.2661ZM700.833 25.0641C692.046 21.8626 686.927 18.4548 682.733 18.8959C678.539 19.337 675.065 23.5772 671.29 26.1526C675.463 28.3651 679.528 32.214 683.819 32.3207C688.11 32.4275 692.595 28.7991 700.811 25.0641H700.833Z" fill="white"/>
<path d="M470.05 141.519L456.768 149.345C453.542 146.869 447.745 144.329 447.885 141.939C448.046 139.292 453.65 136.788 456.887 134.22L470.05 141.519Z" fill="white"/>
<path d="M690.81 518.29C676.345 525.404 664.031 531.85 650.91 537.498C647.996 538.758 641.091 538.139 638.005 536.623C627.981 531.736 618.883 526.023 606.472 518.937C622.314 510.883 636.402 503.214 651.491 496.527C654.115 495.367 662.17 497.48 665.569 499.593C673.871 504.765 680.915 510.812 690.81 518.29ZM615.925 517.841C646.673 538.644 642.747 541.788 681.851 516.966C675.506 512.157 669.731 506.828 662.417 502.688C659.277 500.909 651.469 500.098 648.318 501.45C636.972 506.295 626.712 512.235 615.925 517.841Z" fill="white"/>
<path d="M693.337 230.542V254.617L669.386 245.318L693.337 230.542Z" fill="white"/>
<path d="M538.987 345.502C545.021 350.867 550.817 354.097 549.882 355.569C547.892 358.842 542.579 361.261 538.622 363.986C535.309 361.851 529.201 359.639 529.34 357.618C529.566 354.431 533.997 351.372 538.987 345.502Z" fill="white"/>
</g>
<defs>
<clipPath id="clip0_2_905">
<rect width="857" height="562" fill="white"/>
</clipPath>
</defs>
</svg>
