<svg width="151" height="151" viewBox="0 0 151 151" fill="none" xmlns="http://www.w3.org/2000/svg">
<circle cx="75.5" cy="75.5" r="75.5" fill="#C6A460"/>
<g clip-path="url(#clip0_33_145)">
<path d="M54.6032 85.8317C54.6035 85.8148 54.6035 85.7981 54.6032 85.7813V81.9314H63.5274V85.3355C63.5274 88.9751 66.4885 91.9362 70.1282 91.9362H117.388C118.045 91.9362 118.635 91.5346 118.876 90.9236C119.116 90.3128 118.959 89.6168 118.479 89.1688L98.8106 70.8236L118.479 52.4783C118.959 52.0303 119.116 51.3343 118.875 50.7235C118.635 50.1125 118.045 49.7109 117.388 49.7109H86.2384V41.3048C86.2384 40.4219 85.5228 39.7063 84.6399 39.7063H70.1282C70.1006 39.7063 70.0727 39.7064 70.0454 39.7068H54.6032C54.6032 39.7068 54.6033 39.4796 54.6033 39.472C54.6033 37.8318 52.8217 37 49.3084 37C45.7949 37 44.0135 37.8318 44.0135 39.472V49.4397C44.0131 49.4564 44.0131 49.4733 44.0135 49.4901V59.6957C44.0131 59.7124 44.0131 59.7293 44.0135 59.7461V69.9517C44.0131 69.9684 44.0131 69.9852 44.0135 70.0021V80.2073C44.0131 80.2242 44.0131 80.2412 44.0135 80.2583V90.4638C44.0131 90.4805 44.0131 90.4974 44.0135 90.5142V100.72C44.0131 100.737 44.0131 100.754 44.0135 100.77V110.976C44.0131 110.992 44.0131 111.009 44.0135 111.026V117.529C44.0135 119.169 45.7949 120.001 49.3086 120.001C52.8219 120.001 54.6035 119.169 54.6035 117.529C54.6035 117.522 54.6035 117.515 54.6033 117.508M51.4062 116.622C50.9502 116.714 50.2352 116.803 49.3084 116.803C48.3814 116.803 47.6664 116.714 47.2103 116.622V111.879L51.406 109.223V116.622H51.4062ZM51.4062 105.44L47.2105 108.096V101.623L51.4062 98.9676V105.44ZM51.4062 95.184L47.2105 97.8396V91.3671L51.4062 88.7115V95.184ZM51.4062 84.928L47.2105 87.5837V81.111L51.4062 78.4553V84.928ZM51.4062 74.6719L47.2105 77.3275V70.8554L51.4062 68.1997V74.6719ZM51.4062 64.4159L47.2105 67.0717V60.5992L51.4062 57.9436V64.4159ZM51.4062 54.1599L47.2105 56.8155V50.3432L51.4062 47.6876V54.1599ZM51.4062 43.9041L47.2105 46.5597V40.3778C47.6664 40.2858 48.3814 40.197 49.3084 40.197C50.235 40.197 50.9501 40.2858 51.4062 40.3778V43.9041ZM63.5274 46.3072V78.7344H54.6032V75.575C54.6035 75.5585 54.6035 75.5418 54.6032 75.5253V65.3196C54.6035 65.3027 54.6035 65.286 54.6032 65.2691V55.0631C54.6035 55.0465 54.6035 55.0298 54.6032 55.0133V44.8078C54.6035 44.7909 54.6035 44.7742 54.6032 44.7573V42.9038H64.4743C63.8734 43.8981 63.5274 45.0632 63.5274 46.3072ZM70.0687 42.9038H72.7898C72.8035 42.9038 72.817 42.9036 72.8307 42.9033H83.0412V49.7109H70.1282C68.2513 49.7109 66.7244 48.184 66.7244 46.307C66.7244 44.4501 68.2192 42.9356 70.0687 42.9038ZM70.1282 88.7392C68.2513 88.7392 66.7244 87.2121 66.7244 85.3351V51.9607C67.7189 52.5616 68.8838 52.9077 70.1282 52.9077H113.331L95.3768 69.6545C95.0527 69.957 94.8687 70.3802 94.8687 70.8236C94.8687 71.2669 95.0527 71.6901 95.3768 71.9926L113.331 88.7394H70.1282V88.7392Z" fill="white"/>
</g>
<defs>
<clipPath id="clip0_33_145">
<rect width="83" height="83" fill="white" transform="translate(40 37)"/>
</clipPath>
</defs>
</svg>
