<svg width="151" height="151" viewBox="0 0 151 151" fill="none" xmlns="http://www.w3.org/2000/svg">
<circle cx="75.5" cy="75.5" r="75.5" fill="#C6A460"/>
<g clip-path="url(#clip0_33_146)">
<path d="M124.876 70.9863C111.245 56.418 94.0365 49.0404 76.7631 48.843C76.6209 48.8393 76.4779 48.8389 76.3351 48.8373C76.2394 48.8369 76.1439 48.8336 76.0482 48.8336C76.0322 48.8336 76.0162 48.833 76 48.833C75.7267 48.833 75.4547 48.8375 75.1832 48.8449C57.9636 49.0848 40.7861 56.4592 27.1314 70.9785C25.5549 72.6549 25.6359 75.2918 27.3121 76.8684C28.9884 78.4449 31.6254 78.3639 33.2019 76.6877C38.5593 70.991 44.5058 66.5414 50.7818 63.3385C48.2722 67.6461 46.8334 72.6545 46.8334 78C46.8334 94.1096 59.8906 107.167 76 107.167C92.1093 107.167 105.167 94.1094 105.167 77.9998C105.167 72.6348 103.717 67.6092 101.19 63.2908C107.483 66.4959 113.437 70.9582 118.791 76.6799C120.363 78.3602 123 78.4479 124.68 76.8758C126.361 75.3035 126.448 72.6668 124.876 70.9863ZM96.8336 77.9998C96.8336 89.507 87.5074 98.8332 76.0002 98.8332C64.4929 98.8332 55.1668 89.507 55.1668 77.9998C55.1668 66.6932 64.1711 57.4928 75.4009 57.1756C75.6154 57.173 75.8297 57.167 76.0441 57.167C76.0814 57.167 76.1183 57.1682 76.1556 57.1684C76.2861 57.1686 76.4164 57.1723 76.5468 57.1736C87.8013 57.4635 96.8336 66.6754 96.8336 77.9998Z" fill="white"/>
<path d="M76.0001 61.333C66.7905 61.333 59.3335 68.7902 59.3335 77.9996C59.3335 80.3008 61.1989 82.1662 63.5001 82.1662C65.8013 82.1662 67.6667 80.3008 67.6667 77.9996C67.6667 73.3924 71.3929 69.6662 76.0001 69.6662C78.3013 69.6662 80.1667 67.8008 80.1667 65.4996C80.1667 63.1984 78.3013 61.333 76.0001 61.333Z" fill="white"/>
</g>
<defs>
<clipPath id="clip0_33_146">
<rect width="100" height="100" fill="white" transform="translate(26 28)"/>
</clipPath>
</defs>
</svg>
